<?xml version="1.0" encoding="UTF-8" standalone="no"?><!DOCTYPE svg PUBLIC "-//W3C//DTD SVG 1.1//EN" "http://www.w3.org/Graphics/SVG/1.1/DTD/svg11.dtd"><!-- Generated by graphviz version 2.40.1 (20161225.0304)
 --><!-- Title: boxes_and_circles Pages: 1 --><svg xmlns="http://www.w3.org/2000/svg" xmlns:xlink="http://www.w3.org/1999/xlink" width="518pt" height="295pt" viewBox="0.00 0.00 517.68 294.60">
<g id="graph0" class="graph" transform="scale(1 1) rotate(0) translate(4 290.6)">
<title>boxes_and_circles</title>
<polygon fill="#ffffff" stroke="transparent" points="-4,4 -4,-290.6 513.6767,-290.6 513.6767,4 -4,4"/>
<!-- A -->
<g id="node1" class="node">
<title>A</title>
<polygon fill="none" stroke="#000000" points="191.2574,-286.6 137.2574,-286.6 137.2574,-250.6 191.2574,-250.6 191.2574,-286.6"/>
<text text-anchor="middle" x="164.2574" y="-264.4" font-family="Times,serif" font-size="14.00" fill="#000000">Inicio</text>
</g>
<!-- 1 -->
<g id="node5" class="node">
<title>1</title>
<polygon fill="none" stroke="#000000" points="164.2574,-213.6 13.2645,-195.6 164.2574,-177.6 315.2503,-195.6 164.2574,-213.6"/>
<text text-anchor="middle" x="164.2574" y="-191.4" font-family="Times,serif" font-size="14.00" fill="#000000">Muestras independientes</text>
</g>
<!-- A&#45;&gt;1 -->
<g id="edge1" class="edge">
<title>A-&gt;1</title>
<path fill="none" stroke="#000000" d="M164.2574,-250.5551C164.2574,-242.4828 164.2574,-232.7764 164.2574,-223.7817"/>
<polygon fill="#000000" stroke="#000000" points="167.7575,-223.6903 164.2574,-213.6904 160.7575,-223.6904 167.7575,-223.6903"/>
</g>
<!-- B -->
<g id="node2" class="node">
<title>B</title>
<ellipse fill="none" stroke="#000000" cx="430.2574" cy="-195.6" rx="79.3386" ry="18"/>
<text text-anchor="middle" x="430.2574" y="-191.4" font-family="Times,serif" font-size="14.00" fill="#000000">Mann-Whitney U</text>
</g>
<!-- C -->
<g id="node3" class="node">
<title>C</title>
<ellipse fill="none" stroke="#000000" cx="413.2574" cy="-106.8" rx="49.2396" ry="18"/>
<text text-anchor="middle" x="413.2574" y="-102.6" font-family="Times,serif" font-size="14.00" fill="#000000">Wilcoxon</text>
</g>
<!-- D -->
<g id="node4" class="node">
<title>D</title>
<ellipse fill="none" stroke="#000000" cx="164.2574" cy="-18" rx="33.6479" ry="18"/>
<text text-anchor="middle" x="164.2574" y="-13.8" font-family="Times,serif" font-size="14.00" fill="#000000">Signo</text>
</g>
<!-- 1&#45;&gt;B -->
<g id="edge2" class="edge">
<title>1-&gt;B</title>
<path fill="none" stroke="#000000" d="M315.5194,-195.6C323.9903,-195.6 332.3605,-195.6 340.4889,-195.6"/>
<polygon fill="#000000" stroke="#000000" points="340.6451,-199.1001 350.645,-195.6 340.645,-192.1001 340.6451,-199.1001"/>
<text text-anchor="middle" x="333.046" y="-202.8" font-family="Times,serif" font-size="14.00" fill="#000000">Sí</text>
</g>
<!-- 2 -->
<g id="node6" class="node">
<title>2</title>
<polygon fill="none" stroke="#000000" points="164.2574,-124.8 .2422,-106.8 164.2574,-88.8 328.2726,-106.8 164.2574,-124.8"/>
<text text-anchor="middle" x="164.2574" y="-102.6" font-family="Times,serif" font-size="14.00" fill="#000000">Datos de intervalo o razón</text>
</g>
<!-- 1&#45;&gt;2 -->
<g id="edge3" class="edge">
<title>1-&gt;2</title>
<path fill="none" stroke="#000000" d="M164.2574,-177.2006C164.2574,-165.0949 164.2574,-149.0076 164.2574,-135.2674"/>
<polygon fill="#000000" stroke="#000000" points="167.7575,-134.872 164.2574,-124.872 160.7575,-134.8721 167.7575,-134.872"/>
<text text-anchor="middle" x="172.8107" y="-147" font-family="Times,serif" font-size="14.00" fill="#000000">No</text>
</g>
<!-- 2&#45;&gt;C -->
<g id="edge4" class="edge">
<title>2-&gt;C</title>
<path fill="none" stroke="#000000" d="M328.6099,-106.8C337.3175,-106.8 345.7342,-106.8 353.6634,-106.8"/>
<polygon fill="#000000" stroke="#000000" points="353.7897,-110.2999 363.7897,-106.8 353.7898,-103.2999 353.7897,-110.2999"/>
<text text-anchor="middle" x="346.3263" y="-114" font-family="Times,serif" font-size="14.00" fill="#000000">Sí</text>
</g>
<!-- 2&#45;&gt;D -->
<g id="edge5" class="edge">
<title>2-&gt;D</title>
<path fill="none" stroke="#000000" d="M164.2574,-88.4006C164.2574,-76.2949 164.2574,-60.2076 164.2574,-46.4674"/>
<polygon fill="#000000" stroke="#000000" points="167.7575,-46.072 164.2574,-36.072 160.7575,-46.0721 167.7575,-46.072"/>
<text text-anchor="middle" x="172.8107" y="-58.2" font-family="Times,serif" font-size="14.00" fill="#000000">No</text>
</g>
</g>
</svg>